# xmcd
# 
# Track frame offsets:
#     150
#     29807
#     48972
#     67912
#     86507
#     105647
#     141127
#     156970
#     176292
#     203860
#     223535
#     242267
#     259662
#     276980
#     293707
#     311767
# 
# Disc length: 4390
# 
# Revision: 2
# Processed by: cddbd v1.5.2PL0 Copyright (c) Steve Scherf et al.
# Submitted via: BonkEnc v1.0.8
# 
DISCID=e4112410
DTITLE=Various Artist - MEGA HITS '80s - 07
DYEAR=1994
DGENRE=Rock
TTITLE0=Tears For Fears - Shout
TTITLE1=Tears For Fears - Everybody Wants To Rule The World
TTITLE2=John Parr - St. Elmo's Fire (Man In Motion)
TTITLE3=Michael Sembello - Maniac From The Original Soundtrack "Flashdance"
TTITLE4=The Buggles - Video Killed The Radio Star
TTITLE5=Lipps Inc. - Funkytown
TTITLE6=ABC - The Look Of Love
TTITLE7=Player - Baby Come Back
TTITLE8=10cc - I'm Not In Love
TTITLE9=The Boomtown Rats - I Don't Like Mondays
TTITLE10=Dexy's Midnight Runners - Come On Eileen
TTITLE11=Glenn Medeiros - Nothing's Gonna Change My Love For You
TTITLE12=Swing Out Sister - Breakout
TTITLE13=Kool and The Gang - Celebration
TTITLE14=Kool and The Gang - Joanna
TTITLE15=Band-Aid - Do They Know It's Christmas?
EXTD=YEAR: 1994
EXTT0=
EXTT1=
EXTT2=
EXTT3=
EXTT4=
EXTT5=
EXTT6=
EXTT7=
EXTT8=
EXTT9=
EXTT10=
EXTT11=
EXTT12=
EXTT13=
EXTT14=
EXTT15=
PLAYORDER=
